<?xml version="1.0" encoding="utf-8"?>
<!-- Svg Vector Icons : http://www.onlinewebfonts.com/icon -->
<!DOCTYPE svg PUBLIC "-//W3C//DTD SVG 1.1//EN" "http://www.w3.org/Graphics/SVG/1.1/DTD/svg11.dtd">
<svg version="1.1" xmlns="http://www.w3.org/2000/svg" xmlns:xlink="http://www.w3.org/1999/xlink" x="0px" y="0px" viewBox="0 0 1000 1000" enable-background="new 0 0 1000 1000" xml:space="preserve">
<metadata> Svg Vector Icons : http://www.onlinewebfonts.com/icon </metadata>
<g><path d="M577,989.8c-28.7,0-58.8-9.9-89.2-29c-72.5-46.3-80.9-122.3-73.6-169.9L62.8,613.8c-5.4,52.3-4.4,106.5,7.1,121.9c22.4,30.7,201.9,123.9,322.3,179.9c12.4,5.9,17.9,20.7,12.1,33c-6,12.4-20.7,17.9-33,11.8C321.1,937.1,68.4,817,29.9,765.3C-3.5,719.9,14.4,596.2,18.2,572c1.3-8.1,6.4-14.5,13.6-18.2c6.8-3.6,15.1-3.6,22.3,0l399.7,201.4c10.7,5.5,16.1,17.8,12.4,29.5c-0.9,3.5-24.8,87.9,48.2,134.8c31.6,19.7,59.8,25.6,86.3,17.6c54.1-16.5,90.2-88.3,103.2-118.3c60.3-138.3,193.9-533.4,229.2-637.8l-495.4-117L250.2,561.8c-4.5,12.9-19.1,19.1-32,14.5c-12.5-5-19-19.2-14-31.9L399.2,26.1c4.5-11.6,16.6-18.1,29-15.3l542.6,127.6c6.8,2,12.6,6.5,16,12.3c3.4,6.2,4.2,13.4,2,20.1c-7,20.4-169.5,506.6-239.5,667.8c-19.5,45.1-63.2,123.7-134.3,145.6C602.7,988,589.8,989.8,577,989.8z"/><path d="M528.9,193.9c0,19.9-16.3,35.7-36.2,35.7l0,0c-19.6,0-35.8-15.8-35.8-35.7l0,0c0-19.9,16.1-35.8,35.8-35.8l0,0C512.5,158.1,528.9,174,528.9,193.9L528.9,193.9z"/><path d="M804,312.1c-2.2,0-5-0.4-7.1-1l-231-66.7c-13.2-3.6-20.5-17.5-16.9-30.5c3.7-13.3,17.4-20.8,30.5-16.9l231.3,66.7c13.3,3.9,20.8,17.5,17,30.6C824.5,305.3,814.6,312.1,804,312.1z"/><path d="M470.9,344.8c0,19.9-15.9,36-36,36l0,0c-19.8,0-36-16.1-36-36l0,0c0-19.7,16.1-35.9,36-35.9l0,0C455,308.9,470.9,325.2,470.9,344.8L470.9,344.8z"/><path d="M746.4,463.4c-2.2,0-4.7-0.2-7-1l-231.3-66.6c-13.1-3.9-20.7-17.4-16.8-30.7c3.6-13.1,17.4-20.9,30.5-17.1L753.2,415c13,3.5,20.8,17.4,17.1,30.6C766.9,456.2,757.1,463.4,746.4,463.4z"/><path d="M413.2,496.1c0,19.7-15.9,35.9-35.8,35.9l0,0c-20,0-36.3-16.1-36.3-35.9l0,0c0-19.8,16.2-36,36.3-36l0,0C397.2,460.1,413.2,476.4,413.2,496.1L413.2,496.1z"/><path d="M688.6,614.5c-2.4,0-4.8-0.3-7.1-1.1l-231.2-66.8c-12.9-3.7-20.7-17.4-16.8-30.4c3.9-13.2,17.4-20.8,30.5-16.8L695.4,566c13.2,4,20.9,17.5,16.8,30.6C709.1,607.5,699.1,614.5,688.6,614.5z"/></g>
</svg>