<svg id="svg" version="1.1" width="400" height="400" viewBox="0 0 400 400" xmlns="http://www.w3.org/2000/svg" xmlns:xlink="http://www.w3.org/1999/xlink" ><g id="svgg"><path id="path0" d="M229.200 151.442 C 225.336 152.161,223.588 154.219,224.600 156.856 C 224.957 157.787,223.699 166.995,222.755 170.361 C 219.718 181.184,211.249 195.314,208.732 193.758 C 208.416 193.563,208.387 192.366,208.629 189.641 C 209.753 177.027,208.117 160.735,205.460 158.079 C 203.686 156.304,188.485 155.148,183.848 156.435 L 182.296 156.866 182.506 159.487 C 182.842 163.676,182.109 173.024,181.180 176.391 C 178.657 185.538,176.250 191.116,174.095 192.811 C 172.652 193.946,172.303 193.373,172.356 189.945 C 172.413 186.165,171.806 181.125,170.748 176.600 C 169.452 171.063,167.198 163.184,166.460 161.613 L 165.796 160.200 162.398 160.081 C 158.100 159.930,149.685 160.632,149.003 161.197 C 148.197 161.866,148.039 163.054,148.610 164.155 C 150.602 167.995,151.005 190.729,149.114 192.619 C 148.295 193.438,146.855 191.742,146.093 189.060 C 143.477 179.863,136.586 167.318,133.566 166.256 C 132.162 165.762,124.780 169.297,114.200 175.528 C 105.077 180.900,95.978 190.593,91.549 199.655 C 90.653 201.488,89.601 203.441,89.211 203.994 C 88.014 205.692,88.391 212.529,89.760 213.958 C 90.323 214.546,91.128 216.010,91.549 217.213 C 94.291 225.038,103.100 234.355,111.894 238.730 C 119.508 242.517,136.423 246.499,152.000 248.172 C 155.190 248.514,159.240 248.972,161.000 249.188 C 176.149 251.052,224.490 251.061,236.200 249.203 C 237.520 248.993,240.490 248.629,242.800 248.394 C 247.418 247.923,257.236 246.303,261.000 245.390 C 262.320 245.070,265.020 244.448,267.000 244.008 C 270.261 243.283,275.697 241.871,281.600 240.216 C 291.243 237.512,300.027 230.592,304.056 222.525 C 305.180 220.275,306.437 218.129,306.850 217.755 C 308.335 216.411,307.940 207.315,306.254 204.026 C 305.514 202.582,304.588 200.410,304.197 199.200 C 302.436 193.746,297.828 185.594,293.448 180.183 C 292.542 179.063,291.440 177.643,291.000 177.027 C 287.944 172.754,273.331 162.277,267.000 159.819 C 265.680 159.307,263.610 158.493,262.400 158.009 C 256.410 155.617,256.560 155.482,256.298 163.521 C 255.858 177.012,249.923 194.358,246.670 191.658 C 246.269 191.325,246.031 189.599,245.824 185.514 C 245.665 182.389,245.295 178.205,245.002 176.216 C 244.708 174.227,244.347 171.160,244.199 169.400 C 244.050 167.640,243.570 164.760,243.132 163.000 C 242.693 161.240,242.065 158.720,241.736 157.400 C 240.834 153.779,240.330 152.858,238.870 152.165 C 237.538 151.533,231.241 151.062,229.200 151.442 " stroke="none" fill="#ffffff" fill-rule="evenodd"></path><path id="path1" d="" stroke="none" fill="#ff0000" fill-rule="evenodd"></path><path id="path2" d="M254.620 33.709 C 254.799 34.174,256.400 35.394,256.400 35.065 C 256.400 34.803,254.909 33.200,254.666 33.200 C 254.533 33.200,254.513 33.429,254.620 33.709 M279.067 43.831 C 279.192 44.156,279.647 44.611,280.077 44.841 C 280.774 45.214,280.814 45.174,280.441 44.477 C 279.928 43.517,278.731 42.955,279.067 43.831 M283.067 45.831 C 283.192 46.156,283.647 46.611,284.077 46.841 C 284.774 47.214,284.814 47.174,284.441 46.477 C 283.928 45.517,282.731 44.955,283.067 45.831 M299.200 55.986 C 299.200 56.198,299.574 56.572,300.030 56.816 C 300.790 57.223,300.823 57.190,300.416 56.430 C 299.959 55.577,299.200 55.299,299.200 55.986 M325.067 77.831 C 325.192 78.156,325.647 78.611,326.077 78.841 C 326.774 79.214,326.814 79.174,326.441 78.477 C 325.928 77.517,324.731 76.955,325.067 77.831 M336.813 90.703 C 336.839 91.317,337.967 92.478,338.398 92.334 C 338.646 92.251,338.390 91.788,337.823 91.295 C 337.260 90.806,336.806 90.539,336.813 90.703 M363.200 137.986 C 363.200 138.198,363.574 138.572,364.030 138.816 C 364.790 139.223,364.823 139.190,364.416 138.430 C 363.959 137.577,363.200 137.299,363.200 137.986 M365.207 143.900 C 365.211 144.065,365.688 144.650,366.268 145.200 L 367.323 146.200 366.651 144.900 C 366.046 143.729,365.189 143.136,365.207 143.900 M27.592 167.810 C 26.819 168.741,27.371 168.917,28.198 168.002 C 28.597 167.561,28.738 167.200,28.511 167.200 C 28.284 167.200,27.870 167.474,27.592 167.810 M25.592 181.810 C 24.819 182.741,25.371 182.917,26.198 182.002 C 26.597 181.561,26.738 181.200,26.511 181.200 C 26.284 181.200,25.870 181.474,25.592 181.810 M374.893 214.800 C 374.893 215.570,374.975 215.885,375.076 215.500 C 375.176 215.115,375.176 214.485,375.076 214.100 C 374.975 213.715,374.893 214.030,374.893 214.800 M35.600 261.586 C 35.600 261.798,35.974 262.172,36.430 262.416 C 37.190 262.823,37.223 262.790,36.816 262.030 C 36.359 261.177,35.600 260.899,35.600 261.586 M45.600 283.586 C 45.600 283.798,45.974 284.172,46.430 284.416 C 47.190 284.823,47.223 284.790,46.816 284.030 C 46.359 283.177,45.600 282.899,45.600 283.586 M73.600 321.554 C 73.600 321.749,74.062 322.211,74.627 322.581 L 75.653 323.253 74.981 322.227 C 74.317 321.214,73.600 320.864,73.600 321.554 M115.600 353.586 C 115.600 353.798,115.974 354.172,116.430 354.416 C 117.190 354.823,117.223 354.790,116.816 354.030 C 116.359 353.177,115.600 352.899,115.600 353.586 M231.314 371.880 C 230.827 372.386,230.574 372.800,230.752 372.800 C 231.142 372.800,232.598 371.245,232.364 371.077 C 232.274 371.013,231.801 371.374,231.314 371.880 " stroke="none" fill="#ff5500" fill-rule="evenodd"></path><path id="path3" d="M183.841 25.817 C 183.488 26.169,183.200 26.624,183.200 26.829 C 183.200 27.043,180.321 27.200,176.408 27.200 L 169.615 27.200 169.364 28.200 C 169.116 29.190,169.068 29.200,164.785 29.200 C 160.524 29.200,159.200 29.583,159.200 30.814 C 159.200 31.010,157.445 31.223,155.300 31.286 C 151.600 31.394,151.393 31.446,151.272 32.300 C 151.155 33.122,147.992 33.641,145.500 33.247 C 145.211 33.202,145.043 33.842,145.163 34.530 C 145.194 34.711,145.048 34.753,144.838 34.623 C 144.627 34.493,144.342 34.570,144.204 34.793 C 144.066 35.017,143.166 35.200,142.205 35.200 C 140.589 35.200,139.491 35.762,139.136 36.771 C 139.061 36.982,137.914 37.194,136.586 37.240 C 134.383 37.318,133.151 37.846,133.201 38.692 C 133.211 38.861,132.360 39.090,131.310 39.200 C 129.707 39.368,129.379 39.545,129.272 40.300 C 129.159 41.094,128.913 41.200,127.172 41.200 C 126.051 41.200,125.200 41.383,125.200 41.624 C 125.200 41.857,125.026 41.940,124.813 41.808 C 124.600 41.677,124.197 41.936,123.917 42.384 C 123.618 42.864,122.981 43.200,122.374 43.200 C 121.788 43.200,120.932 43.633,120.400 44.200 C 119.856 44.779,119.014 45.200,118.400 45.200 C 117.792 45.200,116.947 45.618,116.420 46.178 C 115.915 46.716,115.029 47.211,114.451 47.278 C 113.713 47.364,113.362 47.668,113.272 48.300 C 113.173 49.000,112.883 49.200,111.972 49.200 C 110.207 49.200,109.205 49.733,109.338 50.600 C 109.372 50.820,108.905 51.057,108.300 51.127 C 107.311 51.240,107.011 51.600,107.153 52.500 C 107.179 52.665,107.065 52.771,106.900 52.736 C 106.735 52.702,106.330 52.781,106.000 52.913 C 105.670 53.045,105.040 53.210,104.600 53.279 C 104.160 53.348,103.622 53.809,103.405 54.302 C 103.177 54.820,102.657 55.200,102.175 55.200 C 101.715 55.200,100.931 55.635,100.432 56.166 C 99.933 56.698,99.103 57.238,98.589 57.367 C 98.074 57.496,97.539 57.961,97.400 58.401 C 97.238 58.911,96.794 59.200,96.173 59.200 C 95.402 59.200,95.200 59.407,95.200 60.200 C 95.200 61.000,95.000 61.200,94.200 61.200 C 93.650 61.200,93.200 61.391,93.200 61.624 C 93.200 61.857,93.032 61.944,92.827 61.817 C 92.622 61.690,92.217 61.924,91.927 62.336 C 91.637 62.748,91.004 63.210,90.520 63.363 C 90.037 63.516,89.533 63.980,89.402 64.395 C 89.270 64.810,88.766 65.206,88.281 65.275 C 87.721 65.354,87.353 65.728,87.272 66.300 C 87.180 66.951,86.876 67.200,86.172 67.200 C 85.409 67.200,85.200 67.409,85.200 68.172 C 85.200 68.876,84.951 69.180,84.300 69.272 C 83.722 69.354,83.354 69.722,83.272 70.300 C 83.180 70.951,82.876 71.200,82.172 71.200 C 81.402 71.200,81.200 71.408,81.200 72.200 C 81.200 73.000,81.000 73.200,80.200 73.200 C 79.298 73.200,78.998 73.584,79.163 74.530 C 79.194 74.711,79.063 74.762,78.870 74.644 C 78.678 74.525,78.093 74.826,77.570 75.314 C 77.047 75.801,76.553 76.141,76.472 76.068 C 76.174 75.800,72.804 80.083,73.028 80.445 C 73.155 80.651,73.111 80.787,72.930 80.746 C 72.124 80.567,71.200 81.366,71.200 82.243 C 71.200 82.997,70.988 83.200,70.200 83.200 C 69.408 83.200,69.200 83.402,69.200 84.172 C 69.200 84.876,68.951 85.180,68.300 85.272 C 67.722 85.354,67.354 85.722,67.272 86.300 C 67.180 86.951,66.876 87.200,66.172 87.200 C 65.409 87.200,65.200 87.409,65.200 88.173 C 65.200 88.801,64.911 89.238,64.384 89.405 C 63.900 89.559,63.472 90.138,63.335 90.826 C 63.207 91.464,62.957 91.897,62.779 91.787 C 62.301 91.491,61.200 93.236,61.200 94.289 C 61.200 94.994,60.974 95.200,60.200 95.200 C 59.407 95.200,59.200 95.402,59.200 96.173 C 59.200 96.794,58.911 97.238,58.401 97.400 C 57.961 97.539,57.496 98.074,57.367 98.589 C 57.238 99.103,56.698 99.933,56.166 100.432 C 55.635 100.931,55.200 101.746,55.200 102.242 C 55.200 102.873,54.930 103.183,54.300 103.272 C 53.609 103.370,53.371 103.704,53.274 104.708 C 53.205 105.427,52.992 105.919,52.801 105.801 C 52.311 105.498,51.200 107.205,51.200 108.261 C 51.200 108.873,50.923 109.184,50.300 109.272 C 49.532 109.381,49.382 109.679,49.278 111.300 C 49.168 113.015,49.061 113.200,48.178 113.200 C 47.260 113.200,46.843 114.540,47.153 116.500 C 47.179 116.665,47.065 116.771,46.900 116.736 C 45.950 116.535,45.200 117.387,45.200 118.666 C 45.200 119.426,45.032 119.944,44.827 119.817 C 44.224 119.444,43.200 121.267,43.200 122.713 C 43.200 123.447,43.032 123.944,42.827 123.817 C 42.126 123.383,41.200 125.358,41.200 127.289 C 41.200 129.020,41.113 129.200,40.275 129.200 C 39.451 129.200,39.339 129.409,39.253 131.100 C 39.200 132.145,38.984 133.061,38.771 133.136 C 37.832 133.466,37.200 134.566,37.200 135.871 C 37.200 136.795,36.854 137.696,36.200 138.473 C 35.455 139.358,35.200 140.124,35.200 141.473 C 35.200 142.822,34.945 143.588,34.200 144.473 C 33.344 145.490,33.200 146.060,33.200 148.431 C 33.200 150.881,33.113 151.200,32.443 151.200 C 31.429 151.200,31.200 151.947,31.200 155.256 C 31.200 156.791,31.040 157.949,30.845 157.828 C 29.952 157.276,29.411 159.056,29.264 163.024 C 29.126 166.746,29.019 167.230,28.156 168.042 C 27.230 168.912,27.200 169.128,27.200 175.000 C 27.200 180.932,27.179 181.080,26.209 181.991 L 25.219 182.922 25.218 200.061 C 25.217 210.594,25.363 217.200,25.596 217.200 C 25.804 217.200,25.878 217.454,25.759 217.764 C 25.628 218.103,25.873 218.433,26.371 218.591 C 27.078 218.815,27.768 229.960,27.132 230.900 C 26.914 231.223,28.107 232.776,28.512 232.696 C 28.862 232.627,29.057 233.809,29.200 236.868 C 29.378 240.660,29.500 241.223,30.300 241.915 C 31.087 242.596,31.200 243.078,31.200 245.747 C 31.200 248.737,31.221 248.800,32.200 248.800 C 33.177 248.800,33.200 248.868,33.200 251.782 C 33.200 254.429,33.312 254.876,34.200 255.764 C 34.982 256.545,35.200 257.172,35.200 258.636 C 35.200 260.119,35.408 260.701,36.200 261.435 C 37.011 262.187,37.200 262.742,37.200 264.373 C 37.200 266.174,37.303 266.411,38.180 266.631 C 39.019 266.841,39.177 267.143,39.280 268.738 C 39.382 270.320,39.535 270.619,40.300 270.728 C 41.093 270.840,41.200 271.088,41.200 272.810 C 41.200 274.361,41.406 274.970,42.200 275.764 C 42.750 276.314,43.200 277.214,43.200 277.764 C 43.200 278.314,43.650 279.214,44.200 279.764 C 44.750 280.314,45.200 281.200,45.200 281.733 C 45.200 282.271,45.570 282.948,46.031 283.254 C 46.487 283.557,46.989 284.434,47.145 285.203 C 47.354 286.229,47.664 286.634,48.315 286.728 C 49.075 286.838,49.200 287.104,49.200 288.620 C 49.200 290.169,49.322 290.415,50.200 290.636 C 50.911 290.814,51.200 291.158,51.200 291.825 C 51.200 292.341,51.650 293.214,52.200 293.764 C 52.750 294.314,53.200 295.222,53.200 295.782 C 53.200 296.601,53.395 296.800,54.200 296.800 C 54.995 296.800,55.200 297.001,55.200 297.782 C 55.200 298.322,55.634 299.198,56.165 299.729 C 56.696 300.260,57.191 301.123,57.265 301.647 C 57.354 302.278,57.704 302.643,58.300 302.728 C 58.951 302.820,59.200 303.124,59.200 303.828 C 59.200 304.598,59.408 304.800,60.200 304.800 C 60.995 304.800,61.200 305.001,61.200 305.782 C 61.200 306.322,61.650 307.214,62.200 307.764 C 62.750 308.314,63.200 309.128,63.200 309.574 C 63.200 310.100,63.543 310.471,64.177 310.630 C 64.772 310.779,65.202 311.213,65.277 311.738 C 65.354 312.279,65.735 312.648,66.300 312.728 C 66.951 312.820,67.200 313.124,67.200 313.828 C 67.200 314.598,67.408 314.800,68.200 314.800 C 69.000 314.800,69.200 315.000,69.200 315.800 C 69.200 316.600,69.400 316.800,70.200 316.800 C 70.909 316.800,71.200 317.017,71.200 317.546 C 71.200 317.957,72.187 319.352,73.393 320.646 C 77.498 325.052,79.498 326.800,80.431 326.800 C 80.985 326.800,81.200 327.080,81.200 327.800 C 81.200 328.592,81.402 328.800,82.172 328.800 C 82.876 328.800,83.180 329.049,83.272 329.700 C 83.354 330.278,83.722 330.646,84.300 330.728 C 84.951 330.820,85.200 331.124,85.200 331.828 C 85.200 332.598,85.408 332.800,86.200 332.800 C 87.000 332.800,87.200 333.000,87.200 333.800 C 87.200 334.600,87.400 334.800,88.200 334.800 C 88.930 334.800,89.200 335.014,89.200 335.592 C 89.200 336.120,89.562 336.475,90.282 336.656 C 90.877 336.806,91.786 337.349,92.300 337.864 C 92.815 338.379,93.666 338.800,94.190 338.800 C 94.875 338.800,95.180 339.054,95.272 339.700 C 95.353 340.270,95.721 340.646,96.275 340.725 C 96.821 340.802,97.198 341.179,97.275 341.725 C 97.357 342.296,97.731 342.647,98.353 342.735 C 98.877 342.809,99.740 343.304,100.271 343.835 C 100.802 344.366,101.678 344.800,102.218 344.800 C 102.915 344.800,103.200 345.020,103.200 345.557 C 103.200 346.344,103.935 346.800,105.204 346.800 C 105.610 346.800,106.283 347.233,106.699 347.763 C 107.116 348.292,107.894 348.787,108.428 348.863 C 108.963 348.938,109.400 349.232,109.400 349.515 C 109.400 350.267,110.417 350.787,111.900 350.794 C 113.126 350.800,113.451 351.211,113.247 352.500 C 113.221 352.665,113.749 352.800,114.419 352.800 C 115.206 352.800,115.967 353.155,116.565 353.800 C 117.075 354.350,117.884 354.800,118.364 354.800 C 118.844 354.800,119.686 355.250,120.236 355.800 C 120.786 356.350,121.686 356.800,122.236 356.800 C 122.786 356.800,123.686 357.250,124.236 357.800 C 125.030 358.594,125.639 358.800,127.190 358.800 C 128.912 358.800,129.160 358.907,129.272 359.700 C 129.381 360.466,129.679 360.618,131.275 360.721 C 132.856 360.823,133.169 360.979,133.275 361.721 C 133.385 362.492,133.680 362.615,135.686 362.720 C 137.556 362.817,138.113 363.018,138.744 363.820 C 139.365 364.609,139.877 364.800,141.376 364.800 C 142.827 364.800,143.456 365.020,144.236 365.800 C 145.124 366.688,145.571 366.800,148.218 366.800 C 150.877 366.800,151.200 366.882,151.200 367.557 C 151.200 368.599,151.942 368.800,155.789 368.800 C 159.001 368.800,159.122 368.834,159.364 369.800 C 159.612 370.787,159.671 370.800,163.779 370.800 C 167.743 370.800,167.980 370.848,168.729 371.800 C 169.512 372.797,169.538 372.800,176.314 372.800 L 183.113 372.800 183.364 373.800 L 183.615 374.800 200.180 374.800 L 216.744 374.800 216.872 373.900 C 216.998 373.015,217.117 372.997,223.936 372.800 C 230.477 372.611,230.913 372.550,231.584 371.720 C 232.229 370.922,232.693 370.834,236.566 370.772 C 238.915 370.734,240.745 370.612,240.633 370.499 C 239.676 369.542,241.396 368.824,244.906 368.715 C 248.392 368.606,248.607 368.549,248.728 367.700 C 248.847 366.861,249.053 366.800,251.761 366.800 C 253.359 366.800,254.802 366.665,254.967 366.500 C 255.132 366.335,255.432 366.200,255.633 366.200 C 255.835 366.200,255.985 366.040,255.966 365.845 C 255.903 365.196,256.977 364.812,258.871 364.806 C 260.374 364.801,260.893 364.608,261.510 363.823 C 262.126 363.041,262.710 362.821,264.439 362.723 C 266.331 362.615,266.616 362.488,266.728 361.700 C 266.841 360.906,267.087 360.800,268.828 360.800 C 269.913 360.800,270.822 360.620,270.850 360.400 C 270.877 360.180,270.923 359.775,270.950 359.500 C 270.979 359.213,271.683 358.951,272.600 358.886 C 273.480 358.823,274.470 358.659,274.800 358.521 C 275.130 358.382,275.535 358.254,275.700 358.235 C 275.865 358.216,275.985 358.040,275.966 357.845 C 275.912 357.290,276.893 356.813,278.100 356.806 C 278.705 356.803,279.200 356.620,279.200 356.400 C 279.200 356.180,279.335 356.045,279.500 356.100 C 279.665 356.155,279.830 356.040,279.866 355.845 C 279.974 355.263,280.929 354.813,282.071 354.806 C 282.732 354.802,283.443 354.417,283.929 353.800 C 284.392 353.210,285.125 352.800,285.714 352.800 C 286.446 352.800,286.780 352.533,286.964 351.800 C 287.150 351.062,287.501 350.784,288.308 350.739 C 288.908 350.706,289.670 350.660,289.999 350.639 C 290.329 350.617,290.599 350.239,290.599 349.799 C 290.600 349.198,290.908 348.970,291.844 348.879 C 292.678 348.798,293.260 348.435,293.611 347.779 C 293.975 347.099,294.476 346.800,295.254 346.800 C 296.337 346.800,297.474 345.607,296.919 345.053 C 296.780 344.914,297.237 344.800,297.933 344.800 C 298.630 344.800,299.200 344.620,299.200 344.400 C 299.200 344.180,299.425 344.045,299.700 344.100 C 299.975 344.155,300.160 343.991,300.112 343.735 C 300.063 343.479,300.574 343.078,301.247 342.844 C 301.920 342.609,302.563 342.063,302.676 341.631 C 302.789 341.199,303.268 340.790,303.741 340.722 C 304.279 340.646,304.648 340.263,304.728 339.700 C 304.827 339.000,305.117 338.800,306.028 338.800 C 306.673 338.800,307.200 338.620,307.200 338.400 C 307.200 338.180,307.425 338.045,307.700 338.100 C 307.975 338.155,308.157 337.980,308.104 337.711 C 308.050 337.441,308.590 337.071,309.304 336.887 C 310.199 336.656,310.640 336.282,310.728 335.676 C 310.819 335.050,311.133 334.800,311.828 334.800 C 312.363 334.800,312.822 334.620,312.850 334.400 C 312.878 334.180,312.923 333.775,312.950 333.500 C 312.978 333.225,313.388 332.945,313.862 332.877 C 314.379 332.803,314.820 332.374,314.963 331.805 C 315.110 331.220,315.547 330.806,316.101 330.728 C 316.670 330.647,317.046 330.278,317.125 329.725 C 317.202 329.179,317.579 328.802,318.125 328.725 C 318.679 328.646,319.047 328.270,319.128 327.700 C 319.203 327.167,319.535 326.800,319.940 326.800 C 320.316 326.800,321.215 326.174,321.937 325.408 C 322.659 324.643,323.373 324.058,323.525 324.108 C 323.676 324.159,323.827 324.110,323.859 324.000 C 323.892 323.890,324.765 322.900,325.800 321.800 C 326.834 320.700,328.358 319.075,329.185 318.190 C 330.012 317.304,330.813 316.191,330.963 315.715 C 331.114 315.240,331.634 314.794,332.119 314.725 C 332.692 314.644,333.000 314.320,333.000 313.800 C 333.000 313.275,333.309 312.956,333.900 312.872 C 334.395 312.802,334.822 312.577,334.850 312.372 C 334.878 312.167,334.923 311.775,334.950 311.500 C 334.978 311.225,335.384 310.945,335.854 310.878 C 336.442 310.794,336.784 310.380,336.950 309.552 C 337.082 308.889,337.328 308.430,337.495 308.532 C 337.663 308.633,337.990 308.510,338.222 308.258 C 338.698 307.742,338.727 307.663,339.055 306.024 C 339.216 305.219,339.563 304.805,340.146 304.722 C 340.679 304.646,341.048 304.262,341.128 303.700 C 341.210 303.122,341.532 302.800,342.028 302.800 C 342.508 302.800,342.800 302.525,342.800 302.072 C 342.800 301.672,343.340 300.739,344.000 300.000 C 344.660 299.261,345.200 298.238,345.200 297.728 C 345.200 297.074,345.431 296.800,345.982 296.800 C 346.557 296.800,346.832 296.434,347.024 295.414 C 347.167 294.652,347.490 294.067,347.742 294.114 C 347.994 294.161,348.155 293.975,348.100 293.700 C 348.045 293.425,348.157 293.200,348.350 293.200 C 348.542 293.200,348.803 292.683,348.930 292.052 C 349.066 291.368,349.478 290.821,349.948 290.698 C 350.531 290.545,350.809 290.010,351.014 288.646 C 351.231 287.202,351.455 286.800,352.045 286.800 C 352.460 286.800,352.814 286.665,352.831 286.500 C 352.947 285.363,353.252 284.679,354.191 283.447 C 354.779 282.676,355.247 281.945,355.230 281.823 C 355.086 280.750,355.286 280.017,355.700 280.100 C 355.975 280.155,356.155 279.975,356.100 279.700 C 356.045 279.425,356.180 279.200,356.400 279.200 C 356.620 279.200,356.803 278.705,356.806 278.100 C 356.812 276.978,357.285 275.904,357.745 275.966 C 357.885 275.985,357.985 275.885,357.966 275.745 C 357.947 275.604,358.139 275.361,358.392 275.205 C 358.900 274.891,359.123 274.027,359.169 272.195 C 359.191 271.346,359.466 270.873,360.100 270.595 C 361.015 270.193,361.062 270.080,361.150 268.047 C 361.183 267.284,361.453 266.827,361.947 266.698 C 362.487 266.557,362.773 265.973,362.981 264.589 C 363.138 263.537,363.624 262.194,364.059 261.605 C 364.935 260.421,365.124 259.721,365.169 257.500 C 365.186 256.675,365.362 256.045,365.560 256.100 C 365.758 256.155,365.923 256.040,365.926 255.845 C 365.929 255.649,366.123 255.372,366.356 255.227 C 366.887 254.899,367.132 253.596,367.170 250.900 C 367.193 249.298,367.345 248.800,367.810 248.800 C 368.676 248.800,369.200 247.131,369.200 244.374 C 369.200 243.068,369.362 242.045,369.560 242.100 C 369.758 242.155,369.923 242.040,369.926 241.845 C 369.929 241.649,370.153 241.353,370.422 241.186 C 370.732 240.995,370.987 239.429,371.112 236.941 C 371.266 233.907,371.468 232.862,371.993 232.400 C 372.368 232.070,372.707 231.530,372.747 231.200 C 373.030 228.854,373.131 226.827,373.163 222.876 C 373.184 220.388,373.335 218.435,373.500 218.534 C 374.811 219.328,375.001 216.963,374.987 200.000 C 374.974 182.870,374.869 181.334,373.748 181.764 C 373.302 181.936,373.194 180.993,373.169 176.687 C 373.153 173.779,373.059 171.040,372.961 170.600 C 372.863 170.160,372.726 169.391,372.656 168.892 C 372.587 168.392,372.247 167.762,371.901 167.492 C 371.431 167.125,371.222 166.001,371.078 163.069 C 370.915 159.736,370.757 159.020,370.043 158.354 C 369.428 157.781,369.192 157.059,369.169 155.684 C 369.153 154.648,369.052 153.440,368.946 153.000 C 368.840 152.560,368.734 151.975,368.710 151.700 C 368.686 151.425,368.337 151.200,367.933 151.200 C 367.317 151.200,367.192 150.848,367.150 149.000 C 367.081 145.977,367.104 146.066,366.134 145.058 C 365.512 144.411,365.216 143.499,365.083 141.818 C 364.946 140.077,364.689 139.314,364.078 138.839 C 363.501 138.390,363.188 137.555,363.025 136.030 C 362.782 133.750,362.627 133.400,361.867 133.400 C 361.610 133.400,361.304 132.680,361.186 131.800 C 360.936 129.931,360.555 129.200,359.832 129.200 C 359.503 129.200,359.221 128.435,359.065 127.121 C 358.883 125.585,358.555 124.815,357.809 124.174 C 357.126 123.587,356.800 122.899,356.800 122.041 C 356.800 121.303,356.558 120.682,356.219 120.552 C 355.900 120.430,355.424 119.678,355.161 118.881 C 354.898 118.085,354.355 117.156,353.955 116.817 C 353.555 116.478,353.164 115.660,353.087 115.000 C 352.998 114.241,352.626 113.655,352.073 113.405 C 351.593 113.188,351.199 112.828,351.198 112.605 C 351.191 111.375,350.286 109.200,349.781 109.200 C 349.462 109.200,349.200 108.851,349.200 108.425 C 349.200 107.998,348.670 107.069,348.022 106.359 C 347.374 105.650,346.855 104.964,346.869 104.835 C 346.985 103.772,346.692 103.200,346.032 103.200 C 345.500 103.200,345.181 102.823,344.994 101.973 C 344.846 101.298,344.477 100.651,344.174 100.535 C 343.872 100.419,343.403 99.711,343.132 98.962 C 342.861 98.213,342.390 97.600,342.085 97.600 C 341.780 97.600,341.327 97.060,341.078 96.400 C 340.808 95.685,340.336 95.200,339.912 95.200 C 339.294 95.200,338.991 94.522,339.153 93.500 C 339.179 93.335,339.009 93.200,338.776 93.200 C 338.543 93.200,338.464 93.020,338.600 92.800 C 338.736 92.580,338.580 92.400,338.253 92.400 C 337.925 92.400,337.346 91.693,336.965 90.830 C 336.584 89.966,335.936 89.172,335.525 89.064 C 335.114 88.957,334.827 88.635,334.889 88.349 C 334.950 88.063,334.587 87.643,334.083 87.415 C 333.579 87.187,333.065 86.595,332.940 86.100 C 332.809 85.579,332.406 85.200,331.984 85.200 C 331.533 85.200,331.207 84.857,331.128 84.300 C 331.046 83.722,330.678 83.354,330.100 83.272 C 329.544 83.193,329.200 82.867,329.200 82.418 C 329.200 82.019,328.750 81.397,328.200 81.037 C 327.650 80.676,327.200 80.145,327.200 79.855 C 327.200 79.565,326.750 79.123,326.200 78.873 C 325.650 78.622,325.200 78.244,325.200 78.033 C 325.200 77.470,323.119 75.363,322.262 75.058 C 321.856 74.914,321.430 74.437,321.315 73.998 C 321.184 73.496,320.770 73.200,320.197 73.200 C 319.560 73.200,319.211 72.900,319.036 72.200 C 318.875 71.558,318.503 71.200,318.000 71.200 C 317.497 71.200,317.125 70.842,316.964 70.200 C 316.814 69.601,316.427 69.200,316.000 69.200 C 315.573 69.200,315.186 68.799,315.036 68.200 C 314.875 67.558,314.503 67.200,314.000 67.200 C 313.497 67.200,313.125 66.842,312.964 66.200 C 312.787 65.492,312.442 65.200,311.784 65.200 C 311.126 65.200,310.818 64.938,310.728 64.300 C 310.650 63.753,310.279 63.354,309.782 63.283 C 309.332 63.218,308.449 62.723,307.819 62.183 C 307.190 61.642,306.266 61.200,305.766 61.200 C 305.126 61.200,304.818 60.932,304.728 60.300 C 304.646 59.722,304.278 59.354,303.700 59.272 C 303.116 59.189,302.800 58.869,302.800 58.360 C 302.800 57.556,302.632 57.450,300.658 57.015 C 299.996 56.869,299.430 56.435,299.311 55.982 C 299.180 55.479,298.763 55.200,298.143 55.200 C 297.484 55.200,297.060 54.885,296.800 54.200 C 296.511 53.440,296.132 53.200,295.219 53.200 C 294.380 53.200,293.821 52.899,293.363 52.200 C 292.989 51.629,292.326 51.200,291.818 51.200 C 291.257 51.200,290.760 50.830,290.472 50.198 C 290.220 49.646,289.877 49.217,289.707 49.245 C 288.189 49.491,287.194 49.117,286.968 48.213 C 286.831 47.671,286.603 47.242,286.460 47.261 C 285.276 47.416,284.218 47.045,283.435 46.200 C 282.890 45.612,282.066 45.200,281.435 45.200 C 280.804 45.200,279.980 44.788,279.435 44.200 C 278.925 43.650,278.143 43.200,277.696 43.200 C 277.249 43.200,276.460 42.753,275.942 42.207 C 275.200 41.425,274.598 41.212,273.108 41.207 C 271.425 41.201,271.187 41.089,270.964 40.200 C 270.741 39.310,270.506 39.200,268.821 39.200 C 267.189 39.200,266.865 39.062,266.472 38.198 C 266.220 37.646,265.877 37.217,265.707 37.245 C 263.884 37.540,261.143 37.114,260.917 36.500 C 260.529 35.450,259.984 35.213,257.942 35.206 C 256.488 35.201,255.879 34.984,255.142 34.207 C 254.325 33.346,253.848 33.213,251.543 33.207 C 249.046 33.200,248.872 33.140,248.636 32.200 C 248.391 31.226,248.291 31.200,244.780 31.200 C 241.712 31.200,241.136 31.096,240.917 30.500 C 240.485 29.330,239.971 29.212,235.257 29.206 C 231.343 29.201,230.747 29.115,230.950 28.587 C 231.354 27.532,229.450 27.200,223.002 27.200 C 216.933 27.200,216.854 27.189,216.728 26.300 L 216.600 25.400 200.541 25.288 C 186.251 25.188,184.410 25.247,183.841 25.817 M238.870 152.165 C 240.330 152.858,240.834 153.779,241.736 157.400 C 242.065 158.720,242.693 161.240,243.132 163.000 C 243.570 164.760,244.050 167.640,244.199 169.400 C 244.347 171.160,244.708 174.227,245.002 176.216 C 245.295 178.205,245.665 182.389,245.824 185.514 C 246.031 189.599,246.269 191.325,246.670 191.658 C 249.923 194.358,255.858 177.012,256.298 163.521 C 256.560 155.482,256.410 155.617,262.400 158.009 C 263.610 158.493,265.680 159.307,267.000 159.819 C 273.331 162.277,287.944 172.754,291.000 177.027 C 291.440 177.643,292.542 179.063,293.448 180.183 C 297.828 185.594,302.436 193.746,304.197 199.200 C 304.588 200.410,305.514 202.582,306.254 204.026 C 307.940 207.315,308.335 216.411,306.850 217.755 C 306.437 218.129,305.180 220.275,304.056 222.525 C 300.027 230.592,291.243 237.512,281.600 240.216 C 275.697 241.871,270.261 243.283,267.000 244.008 C 265.020 244.448,262.320 245.070,261.000 245.390 C 257.236 246.303,247.418 247.923,242.800 248.394 C 240.490 248.629,237.520 248.993,236.200 249.203 C 224.490 251.061,176.149 251.052,161.000 249.188 C 159.240 248.972,155.190 248.514,152.000 248.172 C 136.423 246.499,119.508 242.517,111.894 238.730 C 103.100 234.355,94.291 225.038,91.549 217.213 C 91.128 216.010,90.323 214.546,89.760 213.958 C 88.391 212.529,88.014 205.692,89.211 203.994 C 89.601 203.441,90.653 201.488,91.549 199.655 C 95.978 190.593,105.077 180.900,114.200 175.528 C 124.780 169.297,132.162 165.762,133.566 166.256 C 136.586 167.318,143.477 179.863,146.093 189.060 C 146.855 191.742,148.295 193.438,149.114 192.619 C 151.005 190.729,150.602 167.995,148.610 164.155 C 148.039 163.054,148.197 161.866,149.003 161.197 C 149.685 160.632,158.100 159.930,162.398 160.081 L 165.796 160.200 166.460 161.613 C 167.198 163.184,169.452 171.063,170.748 176.600 C 171.806 181.125,172.413 186.165,172.356 189.945 C 172.227 198.423,177.217 190.759,181.180 176.391 C 182.109 173.024,182.842 163.676,182.506 159.487 L 182.296 156.866 183.848 156.435 C 188.485 155.148,203.686 156.304,205.460 158.079 C 208.117 160.735,209.753 177.027,208.629 189.641 C 208.387 192.366,208.416 193.563,208.732 193.758 C 211.249 195.314,219.718 181.184,222.755 170.361 C 223.699 166.995,224.957 157.787,224.600 156.856 C 223.915 155.070,224.848 152.847,226.543 152.231 C 229.820 151.039,236.423 151.004,238.870 152.165 " stroke="none" fill="#ffa200" fill-rule="evenodd"></path><path id="path4" d="" stroke="none" fill="#ffff00" fill-rule="evenodd"></path></g></svg>