<?xml version="1.0" encoding="utf-8"?>
<!-- Svg Vector Icons : http://www.onlinewebfonts.com/icon -->
<!DOCTYPE svg PUBLIC "-//W3C//DTD SVG 1.1//EN" "http://www.w3.org/Graphics/SVG/1.1/DTD/svg11.dtd">
<svg version="1.1" xmlns="http://www.w3.org/2000/svg" xmlns:xlink="http://www.w3.org/1999/xlink" x="0px" y="0px" viewBox="0 0 1000 1000" enable-background="new 0 0 1000 1000" xml:space="preserve">
<metadata> Svg Vector Icons : http://www.onlinewebfonts.com/icon </metadata>
<g><g transform="translate(0.000000,492.000000) scale(0.100000,-0.100000)"><path d="M7892.7,4787.5c-27.8-6-125.2-23.9-218.6-41.7c-343.8-63.6-826.8-250.4-1174.6-453.1l-151-89.4h-202.7c-318,0-769.1-39.7-934.1-81.5c-236.5-59.6-421.3-163-556.5-306.1c-145.1-157-196.8-282.2-232.5-576.4c-13.9-119.2-25.8-218.6-27.8-220.6c0,0-123.2-8-272.3-13.9c-683.7-29.8-1128.9-206.7-1415-558.5c-198.7-246.5-294.1-522.7-314-900.3l-11.9-222.6l-91.4-11.9C1747.6,1236,1215,906.1,988.4,502.6C843.3,240.3,757.8-115.4,757.8-469.2V-664L642.6-888.6C288.8-1578.2,100-2325.5,100-3021.1c0-695.6,186.8-1222.3,578.3-1619.8c186.8-190.8,276.3-242.5,498.8-290.2c711.5-151.1,1927.8,524.7,3629,2011.3C5978.8-1892.2,7224.9-634.2,8061.6,367.5C9234.2,1772.6,9902,2984.9,9900,3704.4c-2,369.7-204.7,638-649.9,864.5c-324,165-526.7,212.7-959.9,220.6C8099.4,4793.5,7920.5,4791.5,7892.7,4787.5z M8707.5,4340.4c284.2-71.6,610.2-254.4,721.5-403.4c57.6-79.5,73.5-220.6,43.7-409.4c-121.2-800.9-1031.5-2182.2-2474.3-3756.2c-492.9-536.6-1651.6-1667.4-2325.3-2265.7C3236.2-3772.3,2087.4-4499.7,1451.5-4537.5c-238.5-13.9-337.9,21.9-481,172.9c-636,665.8-626,1903.9,25.8,3285.2c19.9,41.7,41.7,55.6,79.5,55.6c29.8,0,286.2-43.7,568.4-97.4c697.6-133.2,989.7-168.9,1299.8-157c314,13.9,439.2,55.6,556.5,188.8c71.5,81.5,79.5,101.3,79.5,192.8c0,204.7-170.9,379.6-546.5,560.5C2637.9-145.3,2216.6-49.9,1777.4-47.9c-226.6,0-502.8-35.8-564.4-73.5c-23.8-13.9-21.9,6,11.9,137.1c101.4,391.5,381.6,663.8,844.7,820.8c320,109.3,482.9,91.4,1218.3-133.2c1130.9-345.8,1283.9-381.6,1613.8-383.6c349.8-2,526.7,73.5,630,272.3c162.9,314-139.1,699.6-789,1009.6c-620.1,296.1-1351.4,405.4-1804.6,268.3c-93.4-27.8-95.4-27.8-81.5,13.9c6,23.9,39.7,97.4,75.5,161c172.9,329.9,514.7,498.8,1099.1,546.5c381.6,29.8,433.3,19.9,1258-256.4c687.7-230.5,848.7-266.3,1162.7-268.3c288.2,0,387.5,25.8,538.6,137.1c123.2,91.4,153.1,145.1,163,274.3c8,95.4,0,127.2-43.7,204.7c-73.5,125.2-222.6,236.5-479,359.7c-447.2,216.6-1035.4,369.7-1524.3,399.5c-119.3,6-214.6,17.9-214.6,23.9c0,25.8,149,157,214.6,188.8c168.9,85.5,355.8,113.3,868.5,129.2l496.9,15.9l139.1,85.5c206.7,127.2,590.3,306.1,804.9,373.6c172.9,55.7,411.4,107.3,596.2,131.2C8167,4409.9,8540.6,4382.1,8707.5,4340.4z M5398.5,2998.9c475-79.5,1077.2-286.2,1279.9-443.2l47.7-37.8l-47.7-25.8c-79.5-43.7-357.7-29.8-604.2,29.8c-119.2,29.8-447.2,129.2-725.4,220.6c-278.2,91.4-560.4,182.9-626,200.7c-107.3,29.8-113.3,35.8-71.5,51.7C4806.2,3050.5,5062.6,3052.5,5398.5,2998.9z M3977.5,1444.7c125.2-31.8,292.2-83.5,367.7-113.3c353.8-139.1,727.4-377.6,795-506.8c29.8-59.6,29.8-59.6-23.8-81.5c-77.5-29.8-325.9-23.9-510.8,9.9c-178.9,35.8-469,115.3-906.3,250.4c-445.2,139.1-787,236.5-876.5,250.4c-43.7,7.9-83.5,19.9-87.4,29.8c-13.9,21.9,103.3,107.3,214.6,157c147.1,65.6,242.5,77.5,530.6,69.6C3697.2,1506.3,3792.6,1492.4,3977.5,1444.7z M2238.5-497c232.5-49.7,457.1-123.2,636-210.7c182.8-91.4,242.5-131.2,220.6-151.1c-27.8-27.8-492.9-11.9-727.4,21.9c-125.2,19.9-437.2,73.5-693.6,123.2c-256.4,47.7-481,87.4-500.8,87.4c-123.2,0,95.4,107.3,310,153C1638.3-441.4,2029.8-453.3,2238.5-497z"/></g></g>
</svg>